<svg width="16" height="16" viewBox="0 0 16 16" fill="none" xmlns="http://www.w3.org/2000/svg">
<path d="M8 0C3.58065 0 0 3.6129 0 8C0 12.4194 3.58065 16 8 16C12.3871 16 16 12.4194 16 8C16 3.6129 12.3871 0 8 0ZM13.2581 3.70968C14.2258 4.87097 14.8065 6.35484 14.8065 7.96774C14.5806 7.90323 12.3226 7.45161 10.0645 7.74194C9.87097 7.29032 9.70968 6.90323 9.45161 6.3871C12 5.35484 13.129 3.90323 13.2581 3.70968ZM12.5161 2.90323C12.3871 3.09677 11.3548 4.48387 8.93548 5.3871C7.80645 3.32258 6.58065 1.64516 6.3871 1.3871C8.54839 0.870968 10.8387 1.41935 12.5161 2.90323ZM5.06452 1.83871C5.25806 2.09677 6.48387 3.77419 7.6129 5.80645C4.41935 6.64516 1.6129 6.64516 1.29032 6.6129C1.74194 4.51613 3.16129 2.74194 5.06452 1.83871ZM1.16129 8.03226C1.16129 7.96774 1.16129 7.90323 1.16129 7.80645C1.45161 7.83871 4.77419 7.87097 8.16129 6.83871C8.3871 7.22581 8.54839 7.6129 8.74194 8C6.25806 8.70968 4 10.7097 2.90323 12.5806C1.80645 11.3871 1.16129 9.77419 1.16129 8.03226ZM3.77419 13.4194C4.51613 11.9677 6.45161 10.0645 9.19355 9.12903C10.1613 11.6129 10.5484 13.7097 10.6452 14.3226C8.45161 15.2581 5.80645 15 3.77419 13.4194ZM11.8065 13.6774C11.7419 13.2903 11.3548 11.2903 10.4839 8.80645C12.6129 8.48387 14.4839 9.03226 14.7419 9.09677C14.4194 11 13.3226 12.6452 11.8065 13.6774Z" fill="#42435E"/>
</svg>
