<svg width="17" height="16" viewBox="0 0 17 16" fill="none" xmlns="http://www.w3.org/2000/svg">
<path d="M16.9523 12.5367C17.085 12.2707 16.9191 12.0379 16.7201 12.0047C14.3979 11.6389 13.3694 9.24459 13.3031 9.14483C13.1704 8.8788 13.1704 8.67927 13.2367 8.513C13.3694 8.21372 13.8671 8.04745 14.1656 7.94769C14.2652 7.91443 14.3647 7.88118 14.431 7.84793C14.995 7.61515 15.2936 7.34912 15.2936 7.01658C15.2604 6.7838 15.0945 6.55102 14.7628 6.41801C14.5637 6.3515 14.2983 6.3515 14.0993 6.41801C13.8007 6.55102 13.5685 6.61753 13.3363 6.65078C13.2036 6.61753 13.104 6.58428 13.0709 6.55102C13.1372 5.35388 13.3031 3.65793 12.8718 2.69357C12.0756 0.897856 10.4169 0 8.65862 0C8.62544 0 8.36004 0 8.32687 0C7.6302 0 5.27479 0.199524 4.14685 2.72682C3.71557 3.65793 3.88145 5.38714 3.9478 6.55102C3.88145 6.58428 3.78192 6.65078 3.61605 6.65078C3.38383 6.65078 3.1516 6.58428 2.85303 6.41801C2.45493 6.25174 1.82461 6.51777 1.75826 6.95007C1.69191 7.18285 1.82461 7.54864 2.58763 7.84793C2.88621 7.98094 3.61605 8.11396 3.78192 8.513C3.84827 8.67927 3.84827 8.8788 3.71557 9.14483C3.64923 9.24459 2.62081 11.6389 0.298573 12.0047C0.132699 12.0379 0 12.2042 0 12.3705H0.0331748C0.0663496 13.0688 1.59239 13.3348 2.28906 13.4678C2.35541 13.5343 2.42176 13.9334 2.52128 14.2659C2.55446 14.3989 2.65398 14.5652 2.91938 14.5652C3.18478 14.5652 3.58288 14.3989 4.2132 14.3989C5.07574 14.3989 5.37431 14.5985 6.07098 15.0973C6.56861 15.4298 7.43115 16.0616 8.49274 15.9951C9.52116 16.0284 10.2178 15.5961 10.9477 15.0973C11.6443 14.5985 11.9429 14.3989 12.8055 14.3989C13.469 14.3989 13.8007 14.532 14.0993 14.532C14.3315 14.532 14.4642 14.4322 14.4974 14.2327C14.5969 13.9334 14.6633 13.5343 14.7296 13.4346C16.0566 13.2351 16.7864 12.9358 16.9523 12.5367Z" fill="#523737"/>
</svg>
