<svg width="14" height="16" viewBox="0 0 14 16" fill="none" xmlns="http://www.w3.org/2000/svg">
<path d="M14 6.5625V3.84375C13.9688 3.84375 13.9688 3.84375 13.9688 3.84375C13.2188 3.84375 12.5 3.625 11.9062 3.21875C11.0312 2.65625 10.4062 1.75 10.2188 0.71875C10.1562 0.5 10.1562 0.28125 10.1562 0.0625C10.1562 0.03125 10.1562 0.03125 10.1562 0H7.40625V10.9375C7.40625 12.2188 6.34375 13.2812 5.0625 13.2812C3.78125 13.2812 2.71875 12.2188 2.71875 10.9375C2.71875 9.65625 3.78125 8.59375 5.0625 8.59375C5.3125 8.59375 5.53125 8.625 5.78125 8.71875V5.90625C5.53125 5.875 5.3125 5.84375 5.0625 5.84375C2.25 5.84375 0 8.125 0 10.9375C0 13.75 2.25 16 5.0625 16C7.875 16 10.1562 13.75 10.1562 10.9375V5.34375C11.2188 6.125 12.5312 6.5625 13.9688 6.5625H14Z" fill="#523737"/>
</svg>
