<svg width="17" height="16" viewBox="0 0 17 16" fill="none" xmlns="http://www.w3.org/2000/svg">
<path d="M8.51786 3.875C6.23214 3.875 4.41071 5.73214 4.41071 7.98214C4.41071 10.2679 6.23214 12.0893 8.51786 12.0893C10.7679 12.0893 12.625 10.2679 12.625 7.98214C12.625 5.73214 10.7679 3.875 8.51786 3.875ZM8.51786 10.6607C7.05357 10.6607 5.83929 9.48214 5.83929 7.98214C5.83929 6.51786 7.01786 5.33929 8.51786 5.33929C9.98214 5.33929 11.1607 6.51786 11.1607 7.98214C11.1607 9.48214 9.98214 10.6607 8.51786 10.6607ZM13.7321 3.73214C13.7321 3.19643 13.3036 2.76786 12.7679 2.76786C12.2321 2.76786 11.8036 3.19643 11.8036 3.73214C11.8036 4.26786 12.2321 4.69643 12.7679 4.69643C13.3036 4.69643 13.7321 4.26786 13.7321 3.73214ZM16.4464 4.69643C16.375 3.41071 16.0893 2.26786 15.1607 1.33929C14.2321 0.410714 13.0893 0.125 11.8036 0.0535714C10.4821 -0.0178571 6.51786 -0.0178571 5.19643 0.0535714C3.91071 0.125 2.80357 0.410714 1.83929 1.33929C0.910714 2.26786 0.625 3.41071 0.553571 4.69643C0.482143 6.01786 0.482143 9.98214 0.553571 11.3036C0.625 12.5893 0.910714 13.6964 1.83929 14.6607C2.80357 15.5893 3.91071 15.875 5.19643 15.9464C6.51786 16.0179 10.4821 16.0179 11.8036 15.9464C13.0893 15.875 14.2321 15.5893 15.1607 14.6607C16.0893 13.6964 16.375 12.5893 16.4464 11.3036C16.5179 9.98214 16.5179 6.01786 16.4464 4.69643ZM14.7321 12.6964C14.4821 13.4107 13.9107 13.9464 13.2321 14.2321C12.1607 14.6607 9.66071 14.5536 8.51786 14.5536C7.33929 14.5536 4.83929 14.6607 3.80357 14.2321C3.08929 13.9464 2.55357 13.4107 2.26786 12.6964C1.83929 11.6607 1.94643 9.16071 1.94643 7.98214C1.94643 6.83929 1.83929 4.33929 2.26786 3.26786C2.55357 2.58929 3.08929 2.05357 3.80357 1.76786C4.83929 1.33929 7.33929 1.44643 8.51786 1.44643C9.66071 1.44643 12.1607 1.33929 13.2321 1.76786C13.9107 2.01786 14.4464 2.58929 14.7321 3.26786C15.1607 4.33929 15.0536 6.83929 15.0536 7.98214C15.0536 9.16071 15.1607 11.6607 14.7321 12.6964Z" fill="#523737"/>
</svg>
