<svg width="32" height="30" viewBox="0 0 32 30" fill="none" xmlns="http://www.w3.org/2000/svg">
<path d="M31.9102 23.5064C32.16 23.0076 31.8478 22.5711 31.4731 22.5087C27.1018 21.8229 25.166 17.3336 25.0411 17.1466C24.7913 16.6477 24.7913 16.2736 24.9162 15.9619C25.166 15.4007 26.1027 15.089 26.6647 14.9019C26.8521 14.8396 27.0394 14.7772 27.1643 14.7149C28.2259 14.2784 28.7879 13.7796 28.7879 13.1561C28.7255 12.7196 28.4132 12.2832 27.7888 12.0338C27.4141 11.9091 26.9145 11.9091 26.5398 12.0338C25.9778 12.2832 25.5407 12.4079 25.1035 12.4702C24.8538 12.4079 24.6664 12.3455 24.604 12.2832C24.7289 10.0385 25.0411 6.85862 24.2293 5.05044C22.7306 1.68348 19.6082 0 16.2986 0C16.2361 0 15.7366 0 15.6741 0C14.3627 0 9.92902 0.374107 7.80583 5.11279C6.99402 6.85862 7.30626 10.1009 7.43115 12.2832C7.30626 12.3455 7.11892 12.4702 6.80668 12.4702C6.36956 12.4702 5.93243 12.3455 5.37041 12.0338C4.62105 11.722 3.43457 12.2208 3.30967 13.0314C3.18478 13.4678 3.43457 14.1537 4.87084 14.7149C5.43286 14.9643 6.80668 15.2137 7.11892 15.9619C7.24381 16.2736 7.24381 16.6477 6.99402 17.1466C6.86913 17.3336 4.93328 21.8229 0.56202 22.5087C0.249787 22.5711 0 22.8829 0 23.1946H0.0624466C0.124893 24.504 2.99744 25.0028 4.30882 25.2522C4.43371 25.3769 4.5586 26.1251 4.74594 26.7486C4.80839 26.998 4.99573 27.3098 5.4953 27.3098C5.99488 27.3098 6.74424 26.998 7.93072 26.998C9.55434 26.998 10.1164 27.3721 11.4277 28.3074C12.3644 28.9309 13.988 30.1156 15.9863 29.9909C17.9222 30.0532 19.2336 29.2427 20.6074 28.3074C21.9188 27.3721 22.4808 26.998 24.1044 26.998C25.3533 26.998 25.9778 27.2474 26.5398 27.2474C26.9769 27.2474 27.2267 27.0604 27.2892 26.6863C27.4765 26.1251 27.6014 25.3769 27.7263 25.1898C30.2242 24.8157 31.598 24.2546 31.9102 23.5064Z" fill="#523737"/>
</svg>
