<svg width="20" height="16" viewBox="0 0 20 16" fill="none" xmlns="http://www.w3.org/2000/svg">
<path d="M17.5665 3.97108C18.3102 3.39277 18.9795 2.6988 19.5 1.88916C18.8307 2.19759 18.0499 2.42892 17.2691 2.50602C18.0871 2.00482 18.682 1.23373 18.9795 0.26988C18.2358 0.73253 17.3806 1.07952 16.5254 1.27229C15.7818 0.462651 14.7779 0 13.6624 0C11.5059 0 9.75832 1.81205 9.75832 4.04819C9.75832 4.35663 9.7955 4.66506 9.86986 4.97349C6.63503 4.78072 3.73483 3.16145 1.80137 0.73253C1.46673 1.31084 1.28082 2.00482 1.28082 2.7759C1.28082 4.16386 1.9501 5.39759 3.02838 6.13012C2.39628 6.09157 1.76419 5.93735 1.24364 5.62892V5.66747C1.24364 7.63374 2.58219 9.25301 4.36693 9.63855C4.06947 9.71566 3.69765 9.79277 3.36301 9.79277C3.10274 9.79277 2.87965 9.75422 2.61937 9.71566C3.10274 11.3349 4.55284 12.4916 6.26321 12.5301C4.92466 13.6096 3.25147 14.2651 1.42955 14.2651C1.09491 14.2651 0.797456 14.2265 0.5 14.188C2.21037 15.3446 4.25538 16 6.4863 16C13.6624 16 17.5665 9.86988 17.5665 4.51084C17.5665 4.31807 17.5665 4.16386 17.5665 3.97108Z" fill="#42435E"/>
</svg>
