<svg width="32" height="26" viewBox="0 0 32 26" fill="none" xmlns="http://www.w3.org/2000/svg">
<path d="M28.7436 6.45301C29.9961 5.51325 31.1233 4.38554 32 3.06988C30.8728 3.57108 29.5577 3.94699 28.2427 4.07229C29.6204 3.25783 30.6223 2.00482 31.1233 0.438554C29.8708 1.19036 28.4305 1.75422 26.9902 2.06747C25.7378 0.751807 24.047 0 22.1683 0C18.5362 0 15.593 2.94458 15.593 6.57831C15.593 7.07952 15.6556 7.58072 15.7808 8.08193C10.3327 7.76867 5.44814 5.13735 2.19178 1.19036C1.62818 2.13012 1.31507 3.25783 1.31507 4.51084C1.31507 6.76626 2.44227 8.77108 4.25832 9.96145C3.19374 9.8988 2.12916 9.64819 1.25245 9.14699V9.20964C1.25245 12.4048 3.50685 15.0361 6.51272 15.6627C6.01174 15.788 5.38552 15.9133 4.82192 15.9133C4.38356 15.9133 4.00783 15.8506 3.56947 15.788C4.38356 18.4193 6.82583 20.2988 9.70646 20.3614C7.45205 22.1157 4.63405 23.1807 1.56556 23.1807C1.00196 23.1807 0.500978 23.1181 0 23.0554C2.88063 24.9349 6.32485 26 10.0822 26C22.1683 26 28.7436 16.0386 28.7436 7.33012C28.7436 7.01687 28.7436 6.76626 28.7436 6.45301Z" fill="#523737"/>
</svg>
