<svg width="22" height="16" viewBox="0 0 22 16" fill="none" xmlns="http://www.w3.org/2000/svg">
<path d="M21.5174 2.54167C21.2761 1.54167 20.5119 0.75 19.5868 0.5C17.8574 0 11.0201 0 11.0201 0C11.0201 0 4.1426 0 2.41316 0.5C1.48812 0.75 0.723949 1.54167 0.482633 2.54167C0 4.29167 0 8.04167 0 8.04167C0 8.04167 0 11.75 0.482633 13.5417C0.723949 14.5417 1.48812 15.2917 2.41316 15.5417C4.1426 16 11.0201 16 11.0201 16C11.0201 16 17.8574 16 19.5868 15.5417C20.5119 15.2917 21.2761 14.5417 21.5174 13.5417C22 11.75 22 8.04167 22 8.04167C22 8.04167 22 4.29167 21.5174 2.54167ZM8.76782 11.4167V4.66667L14.479 8.04167L8.76782 11.4167Z" fill="#523737"/>
</svg>
