<svg width="32" height="32" viewBox="0 0 32 32" fill="none" xmlns="http://www.w3.org/2000/svg">
<path d="M16.0357 7.75C11.4643 7.75 7.82143 11.4643 7.82143 15.9643C7.82143 20.5357 11.4643 24.1786 16.0357 24.1786C20.5357 24.1786 24.25 20.5357 24.25 15.9643C24.25 11.4643 20.5357 7.75 16.0357 7.75ZM16.0357 21.3214C13.1071 21.3214 10.6786 18.9643 10.6786 15.9643C10.6786 13.0357 13.0357 10.6786 16.0357 10.6786C18.9643 10.6786 21.3214 13.0357 21.3214 15.9643C21.3214 18.9643 18.9643 21.3214 16.0357 21.3214ZM26.4643 7.46429C26.4643 6.39286 25.6071 5.53571 24.5357 5.53571C23.4643 5.53571 22.6071 6.39286 22.6071 7.46429C22.6071 8.53571 23.4643 9.39286 24.5357 9.39286C25.6071 9.39286 26.4643 8.53571 26.4643 7.46429ZM31.8929 9.39286C31.75 6.82143 31.1786 4.53571 29.3214 2.67857C27.4643 0.821429 25.1786 0.25 22.6071 0.107143C19.9643 -0.0357143 12.0357 -0.0357143 9.39286 0.107143C6.82143 0.25 4.60714 0.821429 2.67857 2.67857C0.821429 4.53571 0.25 6.82143 0.107143 9.39286C-0.0357143 12.0357 -0.0357143 19.9643 0.107143 22.6071C0.25 25.1786 0.821429 27.3929 2.67857 29.3214C4.60714 31.1786 6.82143 31.75 9.39286 31.8929C12.0357 32.0357 19.9643 32.0357 22.6071 31.8929C25.1786 31.75 27.4643 31.1786 29.3214 29.3214C31.1786 27.3929 31.75 25.1786 31.8929 22.6071C32.0357 19.9643 32.0357 12.0357 31.8929 9.39286ZM28.4643 25.3929C27.9643 26.8214 26.8214 27.8929 25.4643 28.4643C23.3214 29.3214 18.3214 29.1071 16.0357 29.1071C13.6786 29.1071 8.67857 29.3214 6.60714 28.4643C5.17857 27.8929 4.10714 26.8214 3.53571 25.3929C2.67857 23.3214 2.89286 18.3214 2.89286 15.9643C2.89286 13.6786 2.67857 8.67857 3.53571 6.53571C4.10714 5.17857 5.17857 4.10714 6.60714 3.53571C8.67857 2.67857 13.6786 2.89286 16.0357 2.89286C18.3214 2.89286 23.3214 2.67857 25.4643 3.53571C26.8214 4.03571 27.8929 5.17857 28.4643 6.53571C29.3214 8.67857 29.1071 13.6786 29.1071 15.9643C29.1071 18.3214 29.3214 23.3214 28.4643 25.3929Z" fill="#523737"/>
</svg>
