<svg width="25" height="16" viewBox="0 0 25 16" fill="none" xmlns="http://www.w3.org/2000/svg">
<path d="M10.0694 7.18006C11.4149 6.47091 12.1528 5.45152 12.1528 3.90028C12.1528 0.753463 9.85243 0 7.24826 0H0V15.6898H7.42188C10.2431 15.6898 12.8472 14.3158 12.8472 11.1247C12.8472 9.17452 11.9358 7.71191 10.0694 7.18006ZM3.34201 2.65928H6.55382C7.7691 2.65928 8.85417 3.01385 8.85417 4.47645C8.85417 5.80609 7.98611 6.33795 6.77083 6.33795H3.34201V2.65928ZM6.98785 13.0305H3.34201V8.68698H7.03125C8.55035 8.68698 9.46181 9.3518 9.46181 10.9474C9.46181 12.5429 8.33333 13.0305 6.98785 13.0305ZM22.526 2.34903V0.797784H16.3194V2.34903H22.526ZM25 10.1939C25 6.82548 23.0469 3.98892 19.5747 3.98892C16.1458 3.98892 13.8455 6.60388 13.8455 10.0166C13.8455 13.5623 16.059 16 19.5747 16C22.2222 16 23.9583 14.759 24.783 12.1884H22.092C21.7882 13.1634 20.5729 13.651 19.6615 13.651C17.8819 13.651 16.9271 12.5873 16.9271 10.7701H24.9566C24.9566 10.5928 25 10.3712 25 10.1939ZM16.9271 8.77562C17.0139 7.31302 18.0122 6.38227 19.4444 6.38227C21.0069 6.38227 21.7882 7.2687 21.9184 8.77562H16.9271Z" fill="#42435E"/>
</svg>
