<svg width="30" height="16" viewBox="0 0 30 16" fill="none" xmlns="http://www.w3.org/2000/svg">
<path d="M16.8577 8.00014C16.8577 12.4184 13.1959 16 8.67901 16C4.16213 16 0.5 12.4184 0.5 8.00014C0.5 3.58192 4.16185 0 8.67901 0C13.1962 0 16.8577 3.58192 16.8577 8.00014Z" fill="#523737"/>
<path d="M25.8301 8.00014C25.8301 12.1589 23.9992 15.5316 21.7406 15.5316C19.482 15.5316 17.6511 12.1589 17.6511 8.00014C17.6511 3.84134 19.4817 0.468628 21.7403 0.468628C23.9989 0.468628 25.8298 3.84026 25.8298 8.00014" fill="#523737"/>
<path d="M29.5 8.00014C29.5 11.7254 28.8562 14.7472 28.0617 14.7472C27.2673 14.7472 26.6237 11.7262 26.6237 8.00014C26.6237 4.27406 27.2675 1.25309 28.0617 1.25309C28.8559 1.25309 29.5 4.27379 29.5 8.00014Z" fill="#523737"/>
</svg>
