<svg width="32" height="18" viewBox="0 0 32 18" fill="none" xmlns="http://www.w3.org/2000/svg">
<path d="M18.0499 9.00015C18.0499 13.9706 14.0093 18 9.02511 18C4.04097 18 0 13.9706 0 9.00015C0 4.02966 4.04067 0 9.02511 0C14.0096 0 18.0499 4.02966 18.0499 9.00015Z" fill="#523737"/>
<path d="M27.9504 9.00015C27.9504 13.6788 25.9301 17.4731 23.4379 17.4731C20.9457 17.4731 18.9253 13.6788 18.9253 9.00015C18.9253 4.32151 20.9454 0.527206 23.4376 0.527206C25.9298 0.527206 27.9501 4.32029 27.9501 9.00015" fill="#523737"/>
<path d="M32 9.00015C32 13.1911 31.2896 16.5906 30.4129 16.5906C29.5363 16.5906 28.8262 13.192 28.8262 9.00015C28.8262 4.80832 29.5366 1.40973 30.4129 1.40973C31.2892 1.40973 32 4.80802 32 9.00015Z" fill="#523737"/>
</svg>
