<svg width="32" height="38" viewBox="0 0 32 38" fill="none" xmlns="http://www.w3.org/2000/svg">
<path d="M32 15.6758V9.38867C31.9286 9.38867 31.9286 9.38867 31.9286 9.38867C30.2143 9.38867 28.5714 8.88281 27.2143 7.94336C25.2143 6.64258 23.7857 4.54688 23.3571 2.16211C23.2143 1.65625 23.2143 1.15039 23.2143 0.644531C23.2143 0.572266 23.2143 0.572266 23.2143 0.5H16.9286V25.793C16.9286 28.7559 14.5 31.2129 11.5714 31.2129C8.64286 31.2129 6.21429 28.7559 6.21429 25.793C6.21429 22.8301 8.64286 20.373 11.5714 20.373C12.1429 20.373 12.6429 20.4453 13.2143 20.6621V14.1582C12.6429 14.0859 12.1429 14.0137 11.5714 14.0137C5.14286 14.0137 0 19.2891 0 25.793C0 32.2969 5.14286 37.5 11.5714 37.5C18 37.5 23.2143 32.2969 23.2143 25.793V12.8574C25.6429 14.6641 28.6429 15.6758 31.9286 15.6758H32Z" fill="#523737"/>
</svg>
