<svg width="32" height="24" viewBox="0 0 32 24" fill="none" xmlns="http://www.w3.org/2000/svg">
<path d="M31.298 3.8125C30.947 2.3125 29.8355 1.125 28.4899 0.75C25.9744 0 16.0292 0 16.0292 0C16.0292 0 6.02559 0 3.51005 0.75C2.16453 1.125 1.05302 2.3125 0.702011 3.8125C0 6.4375 0 12.0625 0 12.0625C0 12.0625 0 17.625 0.702011 20.3125C1.05302 21.8125 2.16453 22.9375 3.51005 23.3125C6.02559 24 16.0292 24 16.0292 24C16.0292 24 25.9744 24 28.4899 23.3125C29.8355 22.9375 30.947 21.8125 31.298 20.3125C32 17.625 32 12.0625 32 12.0625C32 12.0625 32 6.4375 31.298 3.8125ZM12.7532 17.125V7L21.0603 12.0625L12.7532 17.125Z" fill="#523737"/>
</svg>
